<svg xmlns="http://www.w3.org/2000/svg" viewBox="0 0 1200 800">
  <defs>
    <linearGradient id="bg" x1="0" y1="0" x2="1" y2="1">
      <stop offset="0" stop-color="#0b0b12"/>
      <stop offset="1" stop-color="#07070d"/>
    </linearGradient>
    <linearGradient id="g" x1="0" y1="0" x2="1" y2="1">
      <stop offset="0" stop-color="#b13cff"/>
      <stop offset="1" stop-color="#ff2e6a"/>
    </linearGradient>
    <filter id="glow" x="-20%" y="-20%" width="140%" height="140%">
      <feGaussianBlur stdDeviation="18" result="b"/>
      <feMerge>
        <feMergeNode in="b"/>
        <feMergeNode in="SourceGraphic"/>
      </feMerge>
    </filter>
  </defs>

  <rect width="1200" height="800" fill="url(#bg)"/>
  <circle cx="290" cy="240" r="180" fill="#b13cff" opacity="0.18"/>
  <circle cx="900" cy="260" r="210" fill="#ff2e6a" opacity="0.14"/>
  <path filter="url(#glow)" fill="url(#g)" opacity="0.95"
        d="M610 120c-60 0-112 34-139 86-23 46-23 102 0 148l44 88-118 236c-11 23 6 50 32 50 13 0 24-7 29-19l132-264 18 36c12 24 37 39 64 39 26 0 51-15 63-39l18-36 132 264c5 12 16 19 29 19 26 0 43-27 32-50L761 442l44-88c23-46 23-102 0-148-27-52-79-86-139-86-46 0-85 20-106 52-21-32-60-52-106-52zm106 140c16 0 28 13 28 28v304c0 16-13 28-28 28-16 0-28-13-28-28V288c0-16 13-28 28-28z"/>
  <text x="80" y="740" fill="rgba(244,244,255,0.78)" font-family="system-ui, Segoe UI, Arial" font-size="34">
    You deserve safety. You deserve respect. You deserve freedom.
  </text>
</svg>
