<svg xmlns="http://www.w3.org/2000/svg" viewBox="0 0 256 256">
  <defs>
    <linearGradient id="g" x1="0" y1="0" x2="1" y2="1">
      <stop offset="0" stop-color="#b13cff"/>
      <stop offset="1" stop-color="#ff2e6a"/>
    </linearGradient>
    <filter id="s" x="-30%" y="-30%" width="160%" height="160%">
      <feDropShadow dx="0" dy="10" stdDeviation="10" flood-color="#000" flood-opacity="0.45"/>
    </filter>
  </defs>
  <path filter="url(#s)" fill="url(#g)" d="M126 22c-18 0-34 10-42 26-7 14-7 31 0 45l13 26-35 70c-3 7 2 15 10 15 4 0 7-2 9-6l40-80 7 14c3 7 10 11 18 11 7 0 14-4 17-11l7-14 40 80c2 4 5 6 9 6 8 0 13-8 10-15l-35-70 13-26c7-14 7-31 0-45-8-16-24-26-42-26-14 0-26 6-32 16-6-10-18-16-32-16zm32 42c5 0 9 4 9 9v92c0 5-4 9-9 9s-9-4-9-9V73c0-5 4-9 9-9z"/>
</svg>
